#!OML:ASF I:\Actors\actors\Patient Classification 2\Patient 1\Session 1\actor1.ASF
:FULLY-SPECIFIED
:DEGREES
164
root -0.997051 18.1757 5.54332 -0.791723 -7.34475 -3.95932
lowerback 6.46024 -2.63954 1.88195
upperback 1.7322 -3.32407 3.51878
thorax -1.72708 -1.66884 2.8317
lowerneck -15.0002 3.37796 2.05857
upperneck 32.9536 6.41434 -6.21843
head 14.0332 2.15419 -1.82304
rclavicle 2.08724e-014 -6.36111e-015
rhumerus -31.9423 44.3828 -90.1665
rradius 106.92
rwrist 34.4224
rhand -28.6298 -31.1143
rfingers 7.12502
rthumb -1.9942 -61.0847
lclavicle 2.08724e-014 -6.36111e-015
lhumerus 16.754 -24.0401 59.9241
lradius 69.8965
lwrist 20.8937
lhand 18.4531 -8.33217
lfingers 7.12502
lthumb 43.0914 15.8814
rfemur 0 0 0
rtibia 0
rfoot 0 0
rtoes 0
lfemur 18.2249 -3.71538 -13.0481
ltibia -16.2639
lfoot -5.10404 21.4881
ltoes -7.77381
165
root -1.00051 18.176 5.5573 -0.712182 -7.47662 -4.00465
lowerback 6.65527 -2.59235 2.02706
upperback 1.48845 -3.23202 3.54162
thorax -2.09704 -1.62193 2.78621
lowerneck -14.7733 3.29839 1.86601
upperneck 33.1984 6.3284 -6.10065
head 14.0743 2.1073 -1.76414
rclavicle 1.7344e-014 7.95139e-016
rhumerus -31.7731 43.5112 -89.208
rradius 107.301
rwrist 32.9852
rhand -27.1179 -29.6056
rfingers 7.12502
rthumb -0.533983 -59.5846
lclavicle 1.7344e-014 7.95139e-016
lhumerus 15.0447 -23.6711 60.3463
lradius 71.7718
lwrist 19.9481
lhand 17.5061 -9.17983
lfingers 7.12502
lthumb 42.2052 15.3411
rfemur 0 0 0
rtibia 0
rfoot 0 0
rtoes 0
lfemur 18.2164 -3.81497 -13.0163
ltibia -16.2165
lfoot -5.30299 21.6349
ltoes -7.5716
166
root -1.00258 18.175 5.57472 -0.642434 -7.67031 -4.02483
lowerback 6.79281 -2.5316 2.19562
upperback 1.27076 -3.12361 3.5361
thorax -2.41135 -1.56781 2.69226
lowerneck -14.5859 3.21976 1.6996
upperneck 33.4445 6.22564 -5.95675
head 14.1242 2.05885 -1.70125
rclavicle -1.51076e-014 2.22639e-014
rhumerus -32.0322 42.9741 -88.6047
rradius 107.743
rwrist 30.1676
rhand -25.6971 -28.1142
rfingers 7.12502
rthumb 0.838253 -58.0923
lclavicle -1.51076e-014 2.22639e-014
lhumerus 12.8963 -23.3172 60.8133
lradius 74.1436
lwrist 18.8266
lhand 15.9388 -10.4814
lfingers 7.12502
lthumb 40.7346 14.5187
rfemur 0 0 0
rtibia 0
rfoot 0 0
rtoes 0
lfemur 18.2319 -3.91014 -13.0284
ltibia -16.1438
lfoot -5.57456 21.8557
ltoes -7.15307
167
root -1.0062 18.175 5.59185 -0.567704 -7.89414 -4.02218
lowerback 6.36168 -2.49127 2.17205
upperback 1.4323 -3.09823 3.57287
thorax -2.00175 -1.55595 2.71303
lowerneck -14.5786 3.17381 1.61903
upperneck 33.401 6.14742 -5.87647
head 14.0919 2.02644 -1.66676
rclavicle 1.2424e-015 1.11319e-014
rhumerus -31.7926 42.8806 -87.7656
rradius 107.996
rwrist 26.2191
rhand -25.8394 -26.0046
rfingers 7.12502
rthumb 0.70084 -55.9832
lclavicle 1.2424e-015 1.11319e-014
lhumerus 10.7637 -22.5976 61.1457
lradius 76.8829
lwrist 17.2989
lhand 14.159 -12.141
lfingers 7.12502
lthumb 39.0594 13.362
rfemur 0 0 0
rtibia 0
rfoot 0 0
rtoes 0
lfemur 18.2258 -3.89064 -13.0435
ltibia -16.0487
lfoot -5.7764 22.0025
ltoes -7.10103
168
root -1.01142 18.1735 5.60786 -0.525406 -8.15278 -3.99757
lowerback 6.80296 -2.43768 2.42048
upperback 1.00459 -2.97252 3.44122
thorax -2.71316 -1.49394 2.46482
lowerneck -13.9524 3.10001 1.60321
upperneck 33.5451 5.96278 -5.64978
head 13.9942 1.98357 -1.61347
rclavicle -1.66979e-014 -3.18055e-015
rhumerus -32.412 42.029 -87.3441
rradius 108.247
rwrist 24.3975
rhand -24.9752 -23.5021
rfingers 7.12502
rthumb 1.53555 -53.4763
lclavicle -1.66979e-014 -3.18055e-015
lhumerus 7.4445 -22.5167 61.613
lradius 80.0598
lwrist 15.4283
lhand 12.3008 -14.7182
lfingers 7.12502
lthumb 37.3051 11.2668
rfemur 0 0 0
rtibia 0
rfoot 0 0
rtoes 0
lfemur 18.2493 -3.76367 -13.0662
ltibia -15.9363
lfoot -5.94413 22.0758
ltoes -7.26066
169
root -1.01592 18.1697 5.62487 -0.515293 -8.40035 -3.95381
lowerback 6.94077 -2.39083 2.58264
upperback 0.819642 -2.88613 3.32905
thorax -2.99736 -1.45289 2.26348
lowerneck -13.5673 3.0382 1.64664
upperneck 33.6005 5.8154 -5.5364
head 13.9207 1.94599 -1.60522
rclavicle -2.84262e-014 -7.15625e-015
rhumerus -32.1714 41.0071 -86.1652
rradius 108.5
rwrist 24.4384
rhand -22.8176 -22.153
rfingers 7.12502
rthumb 3.61926 -52.102
lclavicle -2.84262e-014 -7.15625e-015
lhumerus 4.15673 -22.3866 61.9187
lradius 83.3497
lwrist 13.5007
lhand 9.78508 -18.1265
lfingers 7.12502
lthumb 34.9225 8.44768
rfemur 0 0 0
rtibia 0
rfoot 0 0
rtoes 0
lfemur 18.3161 -3.6594 -13.1178
ltibia -15.835
lfoot -6.17292 22.1522
ltoes -7.12114
